<svg width="120" height="120" viewBox="0 0 120 120" fill="none" xmlns="http://www.w3.org/2000/svg">
<path d="M67.0308 112.817L44.4217 112.56L36.5101 83.5186H74.4278L67.0308 112.817Z" fill="#DCBAF1"/>
<path d="M58.7011 72.1326C52.1725 28.426 36.1885 5.49528 34.1624 6.36362C31.3001 7.6179 30.4639 32.1566 35.5775 57.4994C35.7061 57.4994 35.8026 57.4672 35.9312 57.4672C37.4106 57.4672 38.6006 58.6572 38.6006 60.1366C38.6006 60.5868 38.5041 61.0049 38.3111 61.3587C39.1795 61.809 39.7905 62.7095 39.7905 63.7386C39.7905 65.025 38.8579 66.1185 37.6358 66.3758C39.1473 72.2291 41.0448 78.018 43.2961 83.3889C44.4539 83.3889 57.4469 83.3889 57.4469 83.3889C57.4469 83.3889 59.666 78.5005 58.7011 72.1326Z" fill="#00BCCA"/>
<path d="M96.4902 25.7899C92.5344 25.7899 88.2892 37.1748 83.5937 37.1748C82.5645 37.1748 81.8892 36.0492 81.8892 34.9879C81.8892 33.9587 85.1374 22.6381 85.1374 17.1386C85.1374 16.6562 85.1053 16.1416 85.0409 15.627C84.5264 15.9486 83.8831 16.1416 83.2399 16.1416C81.3103 16.1416 79.7344 14.5657 79.7344 12.6361C79.7344 10.9316 80.9243 9.54864 82.5324 9.19487C80.8922 7.10441 78.4801 5.625 75.1997 5.625C71.0509 5.625 65.1977 9.32352 65.1977 15.0481C65.1977 16.6562 65.6801 20.7406 65.6801 24.4391C65.6801 45.408 49.2459 48.5598 49.2459 71.7799C49.2459 76.6684 51.9474 82.0392 52.7514 83.3578C52.7514 83.3578 66.5163 83.5186 67.8349 83.5186C69.1535 83.5186 79.863 65.6372 81.0851 63.7397C85.7485 56.5357 101.25 48.6241 101.25 31.418C101.25 29.006 100.382 25.7899 96.4902 25.7899Z" fill="#6EDCE4"/>
</svg>
